{"title":"The.Lord.Of.The.Rings.The.Return.Of.The.King.(2003).BRRip.480p.x","uid":7462252,"size":3573848717,"categoryP":"video","categoryS":"movies","magnet":"?xt=urn:btih:f8b79368b4ab087c1e5909b4dab3cb6caeba43fd&amp;dn=The.Lord.Of.The.Rings.The.Return.Of.The.King.%282003%29.BRRip.480p.x&amp;tr=udp%3A%2F%2Ftracker.openbittorrent.com%3A80&amp;tr=udp%3A%2F%2Fopen.demonii.com%3A1337&amp;tr=udp%3A%2F%2Ftracker.coppersurfer.tk%3A6969&amp;tr=udp%3A%2F%2Fexodus.desync.com%3A6969","seeders":0,"leechers":0,"uploader":"Lawry1494","files":-1,"time":1342864080,"description":"General\nComplete name                            : The.Lord.Of.The.Rings.The.Return.Of.The.King.(2003).BRRip.480p.x264.Eng.AAC.5.1.AMX.mp4\nFormat                                   : MPEG-4\nFormat profile                           : Base Media\nCodec ID                                 : isom\nFile size                                : 3.33 GiB\nDuration                                 : 4h 23mn\nOverall bit rate mode                    : Variable\nOverall bit rate                         : 1 810 Kbps\nVideo\nID                                       : 1\nFormat                                   : AVC\nFormat/Info                              : Advanced Video Codec\nFormat profile                           : &lt;a class=&quot;__cf_email__&quot; href=&quot;/cdn-cgi/l/email-protection&quot; data-cfemail=&quot;5e163739361e126d706e&quot;&gt;[email&amp;#160;protected]&lt;/a&gt;&lt;script cf-hash='f9e31' type=&quot;text/javascript&quot;&gt;\n/* &lt;![CDATA[ */!function(){try{var t=&quot;currentScript&quot;in document?document.currentScript:function(){for(var t=document.getElementsByTagName(&quot;script&quot;),e=t.length;e--;)if(t[e].getAttribute(&quot;cf-hash&quot;))return t[e]}();if(t&amp;&amp;t.previousSibling){var e,r,n,i,c=t.previousSibling,a=c.getAttribute(&quot;data-cfemail&quot;);if(a){for(e=&quot;&quot;,r=parseInt(a.substr(0,2),16),n=2;a.length-n;n+=2)i=parseInt(a.substr(n,2),16)^r,e+=String.fromCharCode(i);e=document.createTextNode(e),c.parentNode.replaceChild(e,c)}}}catch(u){}}();/* ]]&gt; */&lt;/script&gt;\nFormat settings, CABAC                   : Yes\nFormat settings, ReFrames                : 8 frames\nCodec ID                                 : avc1\nCodec ID/Info                            : Advanced Video Coding\nDuration                                 : 4h 23mn\nBit rate                                 : 1 475 Kbps\nMaximum bit rate                         : 6 288 Kbps\nWidth                                    : 720 pixels\nHeight                                   : 304 pixels\nDisplay aspect ratio                     : 2.35:1\nFrame rate mode                          : Constant\nFrame rate                               : 23.976 fps\nColor space                              : YUV\nChroma subsampling                       : 4:2:0\nBit depth                                : 8 bits\nScan type                                : Progressive\nBits/(Pixel*Frame)                       : 0.281\nStream size                              : 2.71 GiB (82%)\nWriting library                          : x264 core 125 r2200 999b753\n\nAudio\nID                                       : 2\nFormat                                   : AAC\nFormat/Info                              : Advanced Audio Codec\nFormat profile                           : LC\nCodec ID                                 : 40\nDuration                                 : 4h 23mn\nBit rate mode                            : Variable\nBit rate                                 : 330 Kbps\nMaximum bit rate                         : 412 Kbps\nChannel(s)                               : 6 channels\nChannel positions                        : Front: L C R, Side: L R, LFE\nSampling rate                            : 48.0 KHz\nCompression mode                         : Lossy\nStream size                              : 622 MiB (18%)\nLanguage                                 : English\n","torrent":{"xt":"urn:btih:f8b79368b4ab087c1e5909b4dab3cb6caeba43fd","amp;dn":"The.Lord.Of.The.Rings.The.Return.Of.The.King.%282003%29.BRRip.480p.x","amp;tr":["udp%3A%2F%2Ftracker.openbittorrent.com%3A80","udp%3A%2F%2Fopen.demonii.com%3A1337","udp%3A%2F%2Ftracker.coppersurfer.tk%3A6969","udp%3A%2F%2Fexodus.desync.com%3A6969"],"infoHash":"f8b79368b4ab087c1e5909b4dab3cb6caeba43fd","infoHashBuffer":{"type":"Buffer","data":[248,183,147,104,180,171,8,124,30,89,9,180,218,179,203,108,174,186,67,253]},"announce":[],"urlList":[]}}